<svg version="1.2" xmlns="http://www.w3.org/2000/svg" viewBox="0 0 522 364" width="522" height="364"><style>.a{fill:#181818}.b{fill:#e6e7e8}.c{fill:#fff}.d{fill:#d1d3d4}.e{fill:#f78f1e}</style><path fill-rule="evenodd" class="a" d="m353.7 262.5l-100.7 1.3q-1.7 0.3-3.4 0.9-1.7 0.6-3.3 1.4-1.6 0.7-3.1 1.7-1.5 1-2.8 2.2c-11 9.6-9.6 24.7-9.4 26.5q-0.7-1.8-1.5-3.6-0.3-0.7-0.6-1.4c-0.5-0.9-1-1.8-1.5-2.6-0.3-0.5-0.5-0.8-0.8-1.3q-0.5-0.8-1-1.5c-0.4-0.4-0.8-1-1.1-1.3q-0.4-0.5-0.7-0.9c-0.3-0.3-0.6-0.6-0.8-0.8q-0.3-0.3-0.6-0.6-0.9-0.9-1.9-1.7l9.4-1.3h-11.1q-0.3-0.2-0.5-0.4-0.3-0.1-0.5-0.3-0.3-0.1-0.5-0.3-0.3-0.1-0.5-0.2-0.3-0.2-0.5-0.3-0.3-0.1-0.6-0.2-0.2-0.2-0.5-0.3-0.2-0.1-0.5-0.2l12.6-1.4-16.3 0.4q-0.9-0.1-1.8-0.2-0.9 0-1.7 0-0.9 0-1.8 0.1-0.9 0.1-1.7 0.3l-63 13.9v-20.7q0-0.5 0-1 0-0.5 0.1-1 0.1-0.5 0.2-1 0.1-0.5 0.3-1c2.1-5.1 7.9-6.6 8.7-6.8 1.1-9.6 2.5-21.4 4.2-35 4-33.1 5.2-38.9 9.2-45.4q1.1-1.9 2.5-3.6 1.4-1.8 3-3.4 1.5-1.7 3.3-3.1 1.7-1.5 3.5-2.8c0-2.6 29-16.7 31.7-16.7h53.3c2.7 0 6 1 6 3.6l-2.5 6.9q0.6 1 1.1 2.1 0.5 1 0.8 2.2 0.3 1.1 0.5 2.3 0.1 1.2 0.1 2.4l1.8 25.8h27.1v-19.5l-0.6-0.1-0.6-0.1-1.2-0.2v-32.4q0.6-0.3 1.3-0.5 0.7-0.2 1.3-0.4 0.7-0.1 1.4-0.2 0.7-0.1 1.4-0.1 0.7 0 1.3 0.1 0.6 0.1 1.2 0.3 0.7 0.1 1.3 0.3 0.6 0.2 1.1 0.5v32.4q-0.3 0.1-0.5 0.2-0.3 0.1-0.6 0.2-0.3 0.1-0.6 0.2-0.3 0-0.6 0.1v19.2h19.2c2.2 0 4.5 0.5 6.6 1.3 2.1 0.9 3.9 2.2 5.5 3.8 1.6 1.6 2.9 3.4 3.8 5.5 0.8 2.1 1.3 4.4 1.3 6.6v31q0 1.8-0.4 3.6-0.4 1.8-1.1 3.4-0.8 1.7-1.8 3.2-1.1 1.4-2.5 2.6zm-149.9-64.1q0 1 0.2 2 0.2 0.9 0.5 1.9 0.3 0.9 0.8 1.8 0.5 0.8 1.1 1.6l51.3-10.9 0.4-0.1q0.5-0.1 0.9-0.2 0.5-0.1 0.9-0.1 0.5-0.1 1-0.1 0.4 0 0.9 0h1l-1.4-24.9c0-5.9-4.1-10.8-9.8-11.4q-0.1 0-0.3 0-0.1 0-0.3 0-0.2-0.1-0.3-0.1-0.2 0-0.3 0h-35.1q-0.4 0-0.8 0.1-0.4 0-0.8 0.1-0.5 0-0.9 0.1-0.4 0.1-0.8 0.3c-4 1.4-5.9 5.6-5.9 10.7zm-14.5-29.2q0 0-0.8 0.3l-4.6 19.7 2.6-18.3q0-0.1 0-0.1 0-0.1 0.1-0.1 0-0.1 0-0.1 0-0.1 0.1-0.1-0.5 0.2-1 0.5-0.5 0.3-1 0.7-0.5 0.3-1 0.6-0.5 0.3-0.9 0.6l-2.8 11.9-1.3 5.6 0.9-5.8 1.4-10.4c-1 0.8-2.1 1.6-3.2 2.6l-0.1 0.5-1.4 5.9-0.1 0.7-1.4 5.7 0.8-5.7 0.5-3.6 0.4-2.4-0.9 0.8q-0.8 0.7-1.5 1.4l-1.1 4.6-1.3 5.8 0.7-5.4 0.6-4-0.7 0.7q-0.2 0.2-0.5 0.5-1 1.1-1.6 2l-0.3 0.4h-0.1l-0.7 3.3-0.7 3.2 0.4-2.9 0.3-2.4-0.1 0.3q-0.1 0.2-0.2 0.3v0.1c-0.1 0.1-0.1 0.2-0.1 0.3-0.1 0.1-0.2 0.2-0.2 0.3l-0.1 0.3q0 0.1-0.1 0.2 0 0.1 0 0.2 0 0-0.1 0.1 0 0.1 0 0.2l-0.1 0.3q-0.1 0.4-0.2 0.8-0.1 0.3-0.1 0.6-0.1 0.3-0.2 0.6-0.1 0.3-0.2 0.6-0.1 0.3-0.2 0.6c-1.5 4-6.9 60.8-6.9 60.8 4.9-2.7 14.3-6.1 19.6-7.9 1-0.3 1.9-0.6 2.6-0.8l0.2-0.1 1.1-0.4zm50.4 65.3l-2.5 0.7-43.7 13.4-3.6 1.1 36.2-7.6 7.7-1.7 1.9-0.4q0.3 0 0.6-0.2 0.3-0.1 0.5-0.3 0.3-0.2 0.5-0.5 0.1-0.2 0.3-0.5zm2-13.3l-2.3 0.7-44.3 13.6-3.2 1 30.6-6.5 13.7-2.9 1.5-0.4q0.3 0 0.6-0.2 0.3-0.1 0.5-0.3 0.3-0.2 0.5-0.4 0.2-0.3 0.3-0.6zm2.4-12.4l-2.1 0.6-3.3 1-19.4 5.9-1.5 0.5-20.9 6.4-2.6 0.8 26.7-5.7 7.1-1.5 2.6-0.6 8.1-1.7 1.3-0.3q0.3-0.1 0.6-0.2 0.3-0.1 0.5-0.3 0.2-0.2 0.4-0.5 0.2-0.2 0.4-0.5l1.8-3.3zm81.1 44.3c1.4-0.6 2.7-1.4 3.7-2.5 1.1-1.1 1.9-2.3 2.5-3.7 0.6-1.4 0.9-2.9 0.9-4.4v-31q0-1.1-0.2-2.2-0.3-1.1-0.7-2.2-0.4-1-1-2-0.7-0.9-1.5-1.7-0.2-0.2-0.4-0.4-0.2-0.2-0.4-0.3-0.2-0.2-0.4-0.4-0.2-0.1-0.5-0.3-0.3-0.2-0.7-0.4-0.1-0.1-0.2-0.2-0.2-0.1-0.3-0.1-0.2-0.1-0.3-0.2-0.1 0-0.3-0.1-0.1-0.1-0.3-0.1-0.1-0.1-0.3-0.1-0.1-0.1-0.3-0.1-0.1-0.1-0.3-0.1-0.4-0.2-0.8-0.3-0.1 0-0.3 0-0.2-0.1-0.3-0.1-0.2 0-0.3 0-0.2-0.1-0.4-0.1-0.1 0-0.3 0-0.1 0-0.3 0-0.2-0.1-0.3-0.1-0.2 0-0.4 0h-59q-0.3 0-0.6 0.1-0.3 0-0.6 0-0.4 0-0.7 0.1-0.3 0.1-0.6 0.1-0.2 0.1-0.4 0.1-0.2 0.1-0.3 0.1-0.2 0.1-0.4 0.1-0.2 0.1-0.4 0.2-0.4 0.1-0.8 0.3-0.2 0.1-0.4 0.2-0.3 0.1-0.5 0.3-0.2 0.1-0.4 0.2-0.3 0.2-0.5 0.3-0.4 0.3-0.7 0.6-0.1 0.1-0.2 0.1-0.1 0.1-0.1 0.2-0.1 0-0.2 0.1-0.1 0.1-0.1 0.1-0.4 0.4-0.7 0.7-0.2 0.3-0.5 0.6-0.2 0.3-0.4 0.6-0.2 0.3-0.4 0.6-0.2 0.3-0.3 0.7l7.7 0.2 6.2 0.1 56.2 1.5-58.7 2.4-5.4 0.2q-0.4 0-0.8 0-0.4-0.1-0.8-0.2-0.3-0.1-0.7-0.3-0.4-0.2-0.7-0.5l-0.4-0.3-2.9-2.4-0.1 0.2q0 0.1 0 0.1 0 0 0 0 0 0.1-0.1 0.1 0 0 0 0.1-0.1 0.2-0.2 0.5 0 0.3-0.1 0.6-0.1 0.3-0.1 0.6-0.1 0.3-0.1 0.6-0.1 0.2-0.1 0.4 0 0.2 0 0.4 0 0.2-0.1 0.4 0 0.2 0 0.4v4.4l3.6 0.1 67.3 1.7-64 2.7h-0.2q-0.4 0-0.8-0.1-0.4 0-0.8-0.1-0.3-0.2-0.7-0.4-0.3-0.2-0.7-0.4l-3.4-2.8-0.3-0.3v9.2l70.9 1.8-64 2.7h-0.2q-0.4 0-0.8-0.1-0.4 0-0.8-0.2-0.3-0.1-0.7-0.3-0.4-0.2-0.7-0.4l-3.7-3.1v9.1l70.9 1.9-64 2.6h-0.2q-0.4 0-0.8 0-0.4-0.1-0.8-0.2-0.4-0.1-0.7-0.3-0.4-0.2-0.7-0.5l-3.8-3.1v7.1q0 0.2 0 0.3 0 0.1 0 0.3 0 0.1 0 0.2 0 0.1 0 0.3 0.1 0.1 0.1 0.2 0 0.2 0 0.3 0 0.1 0 0.2 0.1 0.2 0.1 0.3h-0.2l0.2 0.2v-0.2l70.7 1.8-63.9 2.6h-0.2q-0.4 0.1-0.8 0-0.4-0.1-0.8-0.2-0.4-0.1-0.7-0.3-0.4-0.2-0.7-0.5l-3.4-2.8 0.1 0.4q0 0.1 0 0.2 0.1 0.1 0.1 0.2 0 0.1 0.1 0.2 0 0.1 0 0.2c0.1 0.2 0.1 0.3 0.2 0.5q0.2 0.3 0.3 0.7 0.1 0.1 0.2 0.3 0.1 0.2 0.2 0.3 0.1 0.2 0.2 0.3 0.1 0.2 0.2 0.3 0.1 0.2 0.2 0.4 0.1 0.2 0.3 0.4 0.1 0.1 0.3 0.3 0.1 0.2 0.3 0.3 0.2 0.3 0.4 0.5l0.3 0.3q0.8 0.7 1.7 1.3 0.9 0.5 1.9 0.9 1 0.4 2 0.6 1 0.2 2.1 0.1h59c1.5 0.1 3-0.2 4.4-0.8z"/><path class="b" d="m189.2 169.1l-5.5 74.2-0.3 0.1-0.1 0.1-0.7 0.2-0.2 0.1c-0.7 0.2-1.6 0.5-2.6 0.8-5.3 1.8-14.7 5.2-19.6 7.9 0 0 5.4-56.8 6.9-60.9q0.1-0.2 0.2-0.5 0.1-0.3 0.2-0.6 0.1-0.3 0.2-0.6 0-0.3 0.1-0.6 0.1-0.4 0.2-0.8l0.1-0.3q0.1-0.3 0.2-0.7l0.1-0.3c0-0.1 0.1-0.2 0.2-0.3 0-0.1 0-0.2 0.1-0.3v-0.1q0.1-0.1 0.1-0.3l0.2-0.3-0.3 2.4-0.4 2.9 0.7-3.2 0.7-3.3h0.1l0.2-0.4q0.7-0.9 1.7-2 0.3-0.3 0.5-0.5l0.7-0.7-0.6 4-0.7 5.4 1.3-5.8 1.1-4.6q0.7-0.7 1.5-1.4l0.9-0.8-0.4 2.4-0.5 3.6-0.8 5.7 1.3-5.7 0.2-0.7 1.4-5.9 0.1-0.5c1.1-1 2.2-1.8 3.2-2.6l-1.5 10.4-0.8 5.8 1.3-5.6 2.7-11.9q0.5-0.3 1-0.6 0.5-0.3 1-0.6 0.5-0.4 1-0.7 0.5-0.3 1-0.5-0.1 0-0.1 0.1 0 0-0.1 0.1 0 0 0 0.1 0 0 0 0.1l-2.6 18.3 4.6-19.7c0.5-0.3 0.8-0.4 0.8-0.4z"/><path class="b" d="m400.7 334.2l-127.3 23.5q-1.4-0.8-2.7-1.6-1.3-0.8-2.6-1.6-1.3-0.9-2.6-1.8-1.3-1-2.5-1.9l106.4-16-113.4 9.3q-0.9-1.1-1.8-2.2-0.9-1.1-1.7-2.3-0.9-1.1-1.7-2.3-0.7-1.2-1.5-2.4c-9.3-16.2-9.1-45-0.5-58.2 3.1-4.9 7.7-7.6 11-9.4l91.7 3 1.8 0.1c-1.7 4.2-3.7 12-0.3 22.1q0.3 1.1 0.8 2.1 0.4 1 0.9 2 0.5 1 1 1.9 0.5 1 1.1 1.9-1.6-3.5-2.6-7.2-0.9-3.8-1.1-7.6-0.2-3.9 0.3-7.7 0.5-3.8 1.8-7.5l8 0.3c-2.1 6.4-4.5 18.4 2 33.9q0.7 1.5 1.5 3 0.7 1.4 1.6 2.8 0.9 1.4 1.8 2.8 0.9 1.4 1.9 2.7-2.9-5.1-4.8-10.6-1.9-5.6-2.7-11.4-0.8-5.8-0.4-11.6 0.3-5.9 1.8-11.5l14.5 0.4c-3.3 7.5-0.5 19.8 2.5 33.3 2.9 13.5 9.2 25 17.8 29.7z"/><path class="c" d="m242.5 209.2l-0.3 0.6h-1.8l2.1-0.6z"/><path fill-rule="evenodd" class="a" d="m230.4 343.8l-7.5 1-14.1 1.9v-0.1h-2.4l-0.5-0.1-0.5-0.1h-0.2-0.4l-78.5-17.4c-4.7-1-8.3-7.6-8.3-15.2 0-7.6 3.6-14.1 8.3-15.1l14.5-3.2 64-14.2c4.5-0.9 8.9 0.2 12.8 3.4 7.2 5.7 11.6 16.9 11.6 29.1 0 0.3 0 1 0 1.3 0 0 0 0 0 0.2 0 0.2 0 0.4 0 0.6q0 0.2 0 0.4-0.1 0.4 0 0.9l-0.1 0.8q0 0.1 0 0.3 0 0 0 0 0 0 0 0.1 0 0 0 0 0 0 0 0.1c0 0.1 0 0.1 0 0.4 0 0.2-0.1 0.5-0.1 0.8q0 0 0 0 0 0 0 0.1 0 0 0 0 0 0 0 0c0 0.2-0.1 0.4-0.1 0.6q0 0 0 0 0 0 0 0.1 0 0 0 0 0 0 0 0.1c0 0.2-0.1 0.6-0.1 0.8 0 0.2-0.1 0.6-0.1 0.7-0.1 0.1 0 0.1-0.1 0.3 0 0.2 0 0.2-0.1 0.5q0 0.5-0.1 0.9l-0.2 0.5c0 0.1 0 0.1 0 0.4q-0.1 0.3-0.2 0.6v0.3l-0.2 0.6q0 0 0 0 0 0 0 0.1 0 0 0 0 0 0.1-0.1 0.1c0 0.1 0 0.3 0 0.3l-0.1 0.3v0.1c0 0.2-0.1 0.5-0.2 0.6 0 0.2-0.1 0.3-0.1 0.4l-0.2 0.7q0 0 0 0 0 0 0 0.1 0 0 0 0 0 0 0 0 0 0 0 0.1 0 0 0 0 0 0 0 0 0 0 0 0c0 0 0 0.1 0 0.1-0.1 0.3-0.2 0.4-0.3 0.7q-0.1 0.4-0.3 0.9v0.1q-0.2 0.4-0.4 0.9-0.2 0.4-0.4 0.9l-0.2 0.4q-0.2 0.5-0.4 0.9-0.1 0.1-0.1 0.1 0 0.1 0 0.1-0.1 0.1-0.1 0.1 0 0.1-0.1 0.1-0.5 1.1-1.2 2.1-0.1 0.2-0.2 0.4l-0.1 0.1-0.4 0.7c-0.1 0.1-0.2 0.2-0.3 0.4q-0.2 0.2-0.3 0.4l-0.5 0.6q-0.4 0.5-0.8 1h5.7l5.8-0.1-6.3 1-7.1 1.1q-0.2 0.2-0.5 0.4l-0.5 0.4-0.5 0.4q-0.6 0.5-1.2 0.9h-0.1l-0.4 0.2-0.1 0.1 7.6-0.3zm-99.8-25.9c1.3 0 2.3-1.8 2.3-4 0-2.2-1-4-2.3-4-1.2 0-2.2 1.7-2.2 4 0 2.2 1 4 2.2 4zm32.7 1.7c1.8 0 3.2-2.6 3.2-5.8q0-0.4 0-0.7 0-0.4-0.1-0.7 0-0.3-0.1-0.7-0.1-0.3-0.2-0.6c-0.5-1.9-1.7-3.2-2.8-3.2-1.1 0-2.1 1.1-2.7 2.7q-0.1 0.3-0.2 0.7-0.1 0.4-0.2 0.8 0 0.4-0.1 0.9 0 0.4 0 0.8c0 3.2 1.4 5.8 3.2 5.8zm36.4-5.9c0-4.3-2-7.8-4.3-7.8-2.3 0-4.2 3.3-4.3 7.4q0 0.2 0 0.4c0 4.4 2 7.9 4.3 7.9 2.3 0 4.2-3.3 4.3-7.5z"/><path class="b" d="m262.6 194.2h-0.9q-0.5 0-0.9 0.1-0.5 0-1 0-0.4 0.1-0.9 0.2-0.4 0-0.9 0.1l-0.4 0.1-51.2 10.9q-0.7-0.7-1.2-1.6-0.4-0.8-0.8-1.8-0.3-0.9-0.5-1.9-0.2-1-0.2-1.9l2.3-29.3c0-5.1 1.9-9.3 6-10.7q0.4-0.1 0.8-0.2 0.4-0.1 0.8-0.2 0.4-0.1 0.8-0.1 0.4 0 0.8 0h35.1q0.2 0 0.3 0 0.2 0 0.3 0 0.2 0 0.3 0 0.2 0 0.4 0.1c5.6 0.6 9.7 5.5 9.7 11.4z"/><path class="d" d="m293.7 322.9c-13.3-13.2-11.5-36.6 0.1-55.6h-36c-14.7 0-17.3 17.3-17.3 29.2v30c0 5.2 19 28.9 22.9 32.6l119.1-20.6 1-0.1q1-0.2 2.1-0.4 1-0.1 2.1-0.2 1.1-0.1 2.2-0.1 1.1-0.1 2.1-0.1h2.2c-0.5-7.7-11-12.4-19.2-8.5-30.1 14-65.2 9.7-81.3-6.2z"/><path class="d" d="m262.6 194.2h-0.9q-0.5 0-0.9 0.1-0.5 0-1 0-0.4 0.1-0.9 0.2-0.4 0-0.9 0.1l-0.4 0.1-51.2 10.9q-0.7-0.7-1.2-1.6-0.4-0.8-0.8-1.8-0.3-0.9-0.5-1.9-0.2-1-0.2-1.9l2.3-29.3c0-5.1 1.9-9.3 6-10.7q0.4-0.1 0.8-0.2 0.4-0.1 0.8-0.2 0.4-0.1 0.8-0.1 0.4 0 0.8 0h3.3q-0.1 0.2-0.2 0.4c-4.8 10-4.5 21.2 1.2 28.1 6.9 8.5 22 10.8 34.9 3.3q0.3-0.2 0.6-0.3 0.4-0.2 0.7-0.3 0.4-0.1 0.7-0.1 0.4 0 0.7-0.1 1.1 0.1 2.1 0.5 1 0.4 1.7 1.1 0.8 0.7 1.2 1.7 0.5 1 0.5 2z"/><path class="d" d="m169 185.9l-0.3 2.4q-0.5 0.5-0.9 0.9 0.1-0.3 0.2-0.7l0.1-0.3q0.1-0.3 0.2-0.7l0.1-0.3c0-0.1 0.1-0.2 0.2-0.3 0-0.1 0-0.2 0.1-0.3v-0.1q0.1-0.1 0.1-0.3z"/><path class="d" d="m172.9 181.1l-0.5 4q-0.1 0.1-0.2 0.1-0.2 0.1-0.3 0.2-0.1 0.1-0.2 0.2-0.1 0-0.2 0.1l-0.2 0.2q-1.3 1.2-2.3 2.1l0.8-3.2v-0.1l0.3-0.4q0.6-0.8 1.7-2 0.2-0.2 0.5-0.5z"/><path class="d" d="m176.4 177.9l-0.3 2.3-0.5 3.7q-0.4 0-0.7 0.1-0.4 0-0.7 0.1-0.3 0.1-0.6 0.3-0.3 0.1-0.6 0.3l1-4.7q0.7-0.6 1.6-1.4z"/><path class="d" d="m181 174.2l-1.5 10.3q-0.4-0.2-0.8-0.3-0.4-0.1-0.9-0.2-0.4-0.1-0.8-0.2-0.5 0-0.9 0l0.2-0.7 1.3-5.9 0.1-0.5q1.8-1.4 3.3-2.5z"/><path class="d" d="m189.2 169.1l-5.5 74.2-0.3 0.1-0.1 0.1-0.7 0.2-0.2 0.1c-0.7 0.2-1.6 0.5-2.6 0.8l4-52.8q0-1.1-0.2-2.1-0.2-1.1-0.7-2-0.5-0.9-1.3-1.7-0.7-0.7-1.6-1.2l2.7-11.9q0.5-0.3 0.9-0.6 0.5-0.4 1-0.7 0.5-0.3 1-0.6 0.5-0.3 1-0.6 0 0.1-0.1 0.1 0 0.1 0 0.1 0 0.1 0 0.2-0.1 0-0.1 0.1l-2.5 18.3 4.5-19.7c0.5-0.3 0.8-0.4 0.8-0.4z"/><path class="b" d="m308.5 124.7l-0.4 0.3c2.5-2.5 3.8-5.8 1.1-8.3-4.4-4 2.2-14-5.7-17.5q-0.3 0-0.6 0-0.3 0-0.7 0-0.3 0-0.6 0.1-0.3 0-0.7 0.1 0.3-0.1 0.7-0.2 0.3-0.1 0.6-0.1 0.3-0.1 0.6-0.2 0.3 0 0.7-0.1l0.8-0.1h0.5-0.1q0.4 0 0.8 0 0.4 0 0.8 0.1 0.4 0 0.8 0.1 0.4 0 0.8 0.1c4.1 4.3-0.5 12.5 3.4 16 3.2 2.9 0.6 7.3-2.8 9.7z"/><path class="b" d="m303.5 98.3l-0.2 0.1-0.3 0.1q0-0.2 0-0.4c0-7.1 0-12.6-7.2-12.9q-0.3 0-0.6 0-0.2 0-0.5 0.1-0.3 0-0.5 0.1-0.3 0.1-0.5 0.3 0-0.1 0.1-0.2 0.1-0.1 0.2-0.2 0 0 0.1-0.1 0.1-0.1 0.2-0.2 0.3-0.4 0.7-0.6 0.4-0.3 0.9-0.5 0.4-0.2 0.9-0.4 0.5-0.1 1 0 0.7-0.1 1.3 0 0.7 0.1 1.3 0.4 0.7 0.2 1.2 0.5 0.6 0.3 1.1 0.8c2.6 2.4 2.5 6.6 2.4 11.2 0 0.5 0 1-0.1 1.4z"/><path class="b" d="m304.3 127.9l0.3 0.1c-1.4 4.9-5.4 12.1-6.4 11.9q-0.1 0-0.2-0.2 0.7-1.2 1.4-2.4 0.6-1.2 1.2-2.5 0.6-1.2 1.1-2.5 0.5-1.3 0.9-2.6l1.6-1.6z"/><path class="a" d="m309.2 116.7c-4.4-4 2.2-14-5.7-17.5q-0.3 0-0.6 0-0.3 0-0.7 0-0.3 0-0.6 0.1-0.3 0-0.7 0.1c-0.4 0.1-0.7 0.2-0.8 0.2l0.4-0.1-0.4 0.1q0.8-0.4 1.8-0.7l1.1-0.4q0-0.2 0-0.4c0-7.1 0-12.6-7.2-12.9q-0.3 0-0.6 0-0.2 0-0.5 0.1-0.3 0-0.5 0.1-0.3 0.1-0.5 0.3 0-0.1 0.1-0.2 0.1-0.1 0.2-0.2 0 0 0.1-0.1 0.1-0.1 0.2-0.2-0.8 0.6-1.4 1.3-0.6 0.8-1.1 1.6-0.5 0.8-0.8 1.7-0.3 0.9-0.5 1.9 0.4 0.1 0.7 0.2 0.3 0.1 0.6 0.3 0.3 0.1 0.6 0.3 0.3 0.2 0.6 0.3 0.5 0.3 1 0.7 0.4 0.3 0.8 0.7 0.5 0.4 0.9 0.8 0.4 0.4 0.7 0.8-0.5-0.5-1.1-1-0.5-0.5-1.2-0.8-0.6-0.4-1.3-0.7-0.7-0.3-1.4-0.5-0.3-0.1-0.6-0.1-0.4-0.1-0.7-0.1-0.3-0.1-0.6-0.1-0.4 0-0.7 0-0.6 0.1-1.1 0.2-0.6 0.2-1.1 0.4-0.5 0.2-1 0.6-0.5 0.3-0.9 0.7c-3.9 3.9-1.4 13 2.4 14.9q0.7 0.3 1.5 0.6 0.8 0.2 1.6 0.4 0.7 0.2 1.5 0.4 0.8 0.2 1.6 0.3h0.2q-0.8 0-1.6-0.1-0.9 0-1.7-0.1-0.9-0.1-1.7-0.2-0.8-0.2-1.6-0.3 0.2 0.4 0.4 0.7-0.1 0.4-0.2 0.7-0.1 0.3-0.1 0.7-0.1 0.3-0.1 0.6 0 0.4 0 0.7 0 1.1 0.3 2.2 0.3 1 0.9 2 0.6 0.9 1.5 1.7 0.8 0.7 1.8 1.2 0.2-0.3 0.4-0.5 0.3-0.2 0.5-0.5 0.2-0.3 0.4-0.5 0.2-0.3 0.3-0.6-0.2 0.6-0.5 1.1-0.3 0.5-0.5 1-0.3 0.5-0.6 1-0.4 0.5-0.7 1-0.1 0.3-0.1 0.6-0.1 0.4-0.2 0.7 0 0.3 0 0.7-0.1 0.3 0 0.7c0 4.7 7.2 2.1 7.2 14 0 0.7 0.2 0.8 0.6 0.6q-0.1 0-0.2-0.2 0.7-1.2 1.4-2.4 0.6-1.2 1.2-2.4 0.6-1.3 1.1-2.6 0.5-1.3 0.9-2.6l1.6-1.6-4.5-0.8q0.9 0 1.8-0.1 0.9-0.1 1.8-0.2 0.9-0.2 1.8-0.4 0.9-0.3 1.8-0.6 0.2-0.1 0.4-0.3 0.2-0.1 0.4-0.3 0.2-0.1 0.4-0.3 0.2-0.2 0.4-0.3l-0.4 0.2c2.4-2.5 3.8-5.8 1.1-8.3z"/><path fill-rule="evenodd" class="a" d="m518.5 232.3q1 0.7 1.7 1.7 0.8 1 1.1 2.1 0.4 1.1 0.4 2.4l-0.2 46.9q0 1.2-0.4 2.3-0.4 1.2-1.2 2.1-0.7 1-1.7 1.6-1 0.7-2.2 1l-31.5 8q-0.4 0.1-0.7 0.3-0.4 0.2-0.7 0.5-0.3 0.4-0.5 0.7-0.2 0.4-0.2 0.8-0.9 4.4-1.9 8.8-1 4.4-2.2 8.7-1.2 4.4-2.5 8.6-1.4 4.3-2.9 8.6-0.1 0.3-0.2 0.8 0 0.4 0.1 0.8 0.1 0.4 0.3 0.8 0.2 0.3 0.5 0.6l21.4 21.4h-59.5c52.8-75.6 43.7-180.8-26.7-249.6-75.7-74-195-79.2-273.5-14.5q5.3-3.9 10.8-7.5 5.5-3.5 11.2-6.7 5.8-3.2 11.7-6 6-2.8 12.1-5.2c73.5-30.5 163-15.6 224.1 44.1 69 67.5 79.1 170.1 29.5 245.4h-6.2c4.8-8 9.1-16.3 12.8-25 3.6-8.6 6.7-17.4 9-26.5 2.4-9.1 4.1-18.3 5.2-27.6 1.1-9.3 1.4-18.6 1.1-28-3.1-103.4-86.3-186.6-189.7-189.8-112.5-3.4-205.4 89.4-201.9 202q0.3 12.5 2.3 24.8 2 12.4 5.5 24.4 3.5 12 8.6 23.5 5 11.5 11.5 22.2h-71.4q0.2-0.4 0.3-0.9 0.2-0.4 0.5-0.7 0.2-0.4 0.5-0.8 0.3-0.3 0.6-0.6l23.5-22.5q0.3-0.3 0.5-0.6 0.2-0.4 0.3-0.8 0.1-0.4 0-0.8 0-0.4-0.1-0.8-1.5-4.3-2.7-8.6-1.3-4.3-2.4-8.7-1.1-4.3-2-8.7-1-4.4-1.7-8.8-0.1-0.5-0.3-0.8-0.1-0.4-0.4-0.7-0.3-0.3-0.7-0.6-0.3-0.2-0.7-0.3l-31.3-8.6q-1.2-0.3-2.2-1-1-0.7-1.7-1.6-0.8-1-1.1-2.2-0.4-1.1-0.4-2.3l0.7-46.9q0-1.3 0.4-2.4 0.4-1.1 1.2-2.1 0.7-0.9 1.8-1.6 1-0.7 2.2-0.9l31.5-7.7q0.4-0.1 0.8-0.3 0.3-0.3 0.6-0.6 0.3-0.3 0.5-0.6 0.2-0.4 0.3-0.8 0.8-4.4 1.9-8.8 1-4.4 2.3-8.7 1.2-4.3 2.6-8.6 1.4-4.2 3-8.4 0.1-0.4 0.1-0.9 0.1-0.4 0-0.8-0.1-0.4-0.3-0.8-0.2-0.3-0.5-0.6l-22.7-23.2q-0.9-0.8-1.4-1.9-0.5-1.1-0.7-2.3-0.1-1.2 0.1-2.4 0.3-1.2 0.9-2.2l24.1-40.3q0.6-1 1.5-1.8 1-0.8 2.1-1.2 1.1-0.5 2.3-0.5 1.3-0.1 2.4 0.2l31.2 9.2q0.4 0.1 0.8 0.1 0.4 0 0.8-0.1 0.4-0.1 0.8-0.3 0.3-0.2 0.6-0.6 3-3.3 6.1-6.6 3.1-3.2 6.3-6.3 3.2-3.2 6.6-6.2 3.3-3 6.8-5.8 0.3-0.3 0.5-0.6 0.3-0.4 0.4-0.8 0.2-0.4 0.2-0.8 0-0.4-0.1-0.8l-8.1-31.5q-0.3-1.1-0.2-2.4 0.1-1.2 0.5-2.3 0.5-1.1 1.3-2 0.8-0.9 1.9-1.5l41-22.7q1.1-0.6 2.3-0.8 1.2-0.2 2.4-0.1 1.2 0.2 2.2 0.8 1.1 0.6 2 1.4l22.3 23.6q0.3 0.3 0.7 0.5 0.3 0.2 0.7 0.3 0.5 0.1 0.9 0.1 0.4 0 0.8-0.2 3.7-1.2 7.5-2.3 3.8-1.2 7.6-2.1 3.9-1 7.7-1.9 3.9-0.8 7.8-1.6 0.4 0 0.8-0.2 0.3-0.2 0.6-0.5 0.4-0.3 0.6-0.6 0.2-0.4 0.3-0.8l8.1-31.4q0.3-1.2 1-2.2 0.6-1 1.6-1.8 1-0.7 2.1-1.1 1.2-0.4 2.4-0.4h46.9q1.2 0 2.3 0.4 1.2 0.4 2.2 1.1 0.9 0.8 1.6 1.8 0.7 1 1 2.2l8.1 31.4q0.1 0.4 0.3 0.8 0.2 0.3 0.6 0.6 0.3 0.3 0.6 0.5 0.4 0.2 0.8 0.2 4.4 0.9 8.8 1.8 4.4 1 8.7 2.2 4.4 1.2 8.7 2.5 4.3 1.3 8.5 2.8 0.4 0.2 0.8 0.2 0.4 0 0.8-0.1 0.4-0.1 0.8-0.3 0.4-0.2 0.7-0.5l22.7-23q0.9-0.9 2-1.4 1.1-0.6 2.3-0.7 1.2-0.2 2.4 0 1.1 0.3 2.2 0.9l40.7 23.5q1 0.6 1.8 1.5 0.8 0.9 1.3 2.1 0.4 1.1 0.5 2.3 0.1 1.2-0.2 2.4l-8.8 31.3q-0.1 0.4-0.1 0.8 0 0.4 0.2 0.8 0.1 0.4 0.3 0.8 0.2 0.3 0.6 0.6 3.4 2.9 6.7 6 3.2 3 6.4 6.2 3.2 3.2 6.2 6.5 3 3.3 6 6.7 0.2 0.3 0.6 0.6 0.3 0.2 0.7 0.3 0.4 0.1 0.8 0.2 0.4 0 0.9-0.1l31.3-8.6q1.2-0.3 2.4-0.3 1.2 0.1 2.3 0.6 1.1 0.5 2.1 1.3 0.9 0.8 1.5 1.8l17.5 30.6-18.9-28.4q-0.3-0.5-0.7-0.9-0.4-0.4-0.9-0.6-0.5-0.3-1.1-0.3-0.6-0.1-1.1-0.1l-16.5 5.2q1 0.2 2.6 0.6 1.9 0.5 3.7 1.1 1.8 0.6 3.6 1.3 1.7 0.7 3.5 1.5 1.7 0.8 3.4 1.7c5.8 3.2 14.9 10.2 23.9 21.5l4.3 7.5q0.6 1.1 0.8 2.2 0.3 1.2 0.1 2.4-0.2 1.2-0.7 2.3-0.6 1.1-1.4 2l-23.2 22.6q-0.3 0.3-0.5 0.7-0.2 0.4-0.3 0.8-0.1 0.4-0.1 0.8 0 0.4 0.2 0.8 1.4 4.3 2.8 8.6 1.3 4.2 2.4 8.6 1.2 4.3 2.1 8.7 1 4.4 1.8 8.8 0.1 0.4 0.2 0.8 0.2 0.4 0.5 0.7 0.3 0.3 0.7 0.5 0.3 0.3 0.7 0.4l31.4 8.3q1.2 0.3 2.2 0.9zm-450.4-123.4l-10.3-3.1q-0.3-0.1-0.6-0.1-0.3 0-0.6 0.1-0.3 0.2-0.5 0.4-0.2 0.2-0.4 0.4l-9.8 17q1.2-1.8 2.6-3.5 1.4-1.7 3.1-3.3 1.6-1.5 3.4-2.8 1.8-1.3 3.7-2.3 1-0.5 1.9-0.9 1-0.3 2-0.7 1-0.3 2-0.6 1-0.2 2-0.4c0.6-0.1 1.1-0.2 1.5-0.2zm104.9-74.7q-5.1-5.1-10.2-10.2-0.3-0.3-0.6-0.4-0.4-0.2-0.8-0.3-0.4 0-0.8 0.1-0.4 0.1-0.8 0.3l-22.3 14c9.2-4.9 17.7-6.2 22.7-6q1.4 0.1 2.7 0.2 1.4 0.2 2.8 0.4 1.3 0.2 2.7 0.6 1.3 0.3 2.6 0.7c0.8 0.2 1.5 0.5 2 0.6zm120.4-12.3q-1.8-7.9-3.7-15.9-0.1-0.4-0.3-0.8-0.3-0.4-0.7-0.7-0.3-0.3-0.8-0.4-0.4-0.2-0.9-0.2h-29.8c11.8 0.9 20.7 4.8 25.4 7.9q1.3 0.9 2.5 1.9 1.2 0.9 2.4 2 1.2 1 2.3 2.1 1.1 1.1 2.1 2.3c0.7 0.7 1.1 1.4 1.5 1.8zm115.4 47.7q2.2-8.3 4.5-16.7 0.1-0.5 0-1.1-0.2-0.5-0.4-1-0.3-0.5-0.7-0.9-0.4-0.4-0.9-0.7l-34.2-20.9c13.1 9.1 21.2 18.8 24.8 24.8q1 1.7 1.9 3.4 0.8 1.6 1.6 3.4 0.8 1.7 1.5 3.5 0.6 1.8 1.2 3.6c0.3 1.1 0.5 2 0.7 2.6zm85.7 74.3l-1.5-2.6 3.3 4.9q-0.9-1.1-1.8-2.3zm26.7 94.1q0-0.5-0.1-0.9-0.2-0.4-0.4-0.8-0.3-0.4-0.7-0.6-0.4-0.3-0.8-0.4l-15.9-3.9c0.5 0.4 1.1 0.9 1.8 1.5q1.2 1.1 2.3 2.2 1.1 1.1 2.1 2.3 1 1.2 2 2.4 0.9 1.3 1.8 2.5c3.1 4.7 6.8 13.8 7.5 25.6z"/><path fill-rule="evenodd" class="e" d="m239.6 234.4l-2.1 4q-0.1 0.3-0.3 0.6-0.2 0.2-0.5 0.4-0.2 0.2-0.5 0.3-0.3 0.2-0.6 0.2l-1.8 0.4-7.8 1.7-36.2 7.7 3.6-1.1 43.8-13.4zm1.9-13.3l-2.1 4q-0.1 0.3-0.3 0.5-0.2 0.3-0.4 0.5-0.3 0.2-0.6 0.3-0.2 0.1-0.6 0.2l-1.5 0.3-13.6 2.9-30.7 6.6 3.3-1 44.3-13.6zm2.4-12.5l-0.4 0.7-1.7 3.3q-0.2 0.3-0.4 0.5-0.2 0.3-0.4 0.5-0.3 0.2-0.5 0.3-0.3 0.1-0.6 0.2l-1.3 0.3-8.1 1.7-2.6 0.6-7.1 1.5-26.7 5.6 2.6-0.8 20.9-6.3 1.4-0.5 19.5-5.9 3.3-1zm6.5 36l-0.2-0.2h0.2z"/><path class="b" d="m332.1 211.4v31c0 1.5-0.3 3-0.8 4.4-0.6 1.4-1.5 2.7-2.5 3.7-1.1 1.1-2.3 1.9-3.7 2.5-1.4 0.6-2.9 0.9-4.4 0.9h-59q-1.1 0-2.1-0.2-1-0.2-2-0.6-1-0.4-1.9-0.9-0.9-0.6-1.7-1.3l-0.3-0.3q-0.2-0.2-0.4-0.4-0.2-0.2-0.3-0.4-0.2-0.1-0.3-0.3-0.2-0.2-0.3-0.4-0.1-0.2-0.2-0.4-0.1-0.1-0.2-0.3-0.1-0.1-0.2-0.3-0.1-0.1-0.2-0.3-0.1-0.2-0.2-0.3-0.1-0.4-0.3-0.7c-0.1-0.2-0.1-0.3-0.2-0.5q0-0.1 0-0.2-0.1-0.1-0.1-0.2 0-0.1-0.1-0.2 0-0.1 0-0.2c0-0.1-0.1-0.2-0.1-0.3l3.4 2.8q0.3 0.2 0.7 0.4 0.3 0.2 0.7 0.3 0.4 0.2 0.8 0.2 0.4 0.1 0.8 0.1h0.5l64.1-2.7-71.2-1.8q-0.1-0.5-0.1-1 0-0.2 0-0.3 0-0.1 0-0.2 0-0.2 0-0.3 0-0.1 0-0.3v-7.1l3.7 3.1q0.3 0.3 0.7 0.5 0.4 0.2 0.7 0.3 0.4 0.1 0.8 0.2 0.4 0 0.8 0h0.5l64.1-2.6-71.3-1.9v-9.1l3.7 3.1q0.3 0.2 0.7 0.4 0.3 0.2 0.7 0.3 0.4 0.1 0.8 0.2 0.4 0.1 0.8 0.1h0.5l64.1-2.7-71.3-1.8v-8.9h0.3l3.4 2.8q0.3 0.3 0.7 0.5 0.3 0.2 0.7 0.3 0.4 0.1 0.8 0.2 0.4 0.1 0.8 0h0.5l64.1-2.6-67.3-1.8-4-0.1v-4.4q0-0.2 0-0.4 0-0.2 0-0.4 0-0.2 0-0.4 0-0.2 0.1-0.4 0-0.3 0.1-0.6 0-0.3 0.1-0.5 0.1-0.3 0.2-0.6 0-0.3 0.1-0.6 0 0 0.1 0 0-0.1 0-0.1 0 0 0-0.1 0 0 0 0 0-0.1 0.1-0.1 0 0 0 0 0-0.1 0-0.1 0 0 0-0.1l3 2.5 0.4 0.3q0.3 0.2 0.6 0.4 0.4 0.2 0.8 0.3 0.4 0.2 0.8 0.2 0.4 0.1 0.8 0.1l5.3-0.3 58.8-2.4-56.3-1.4-6.1-0.2-7.8-0.2q0.2-0.3 0.4-0.6 0.1-0.3 0.3-0.7 0.2-0.3 0.5-0.6 0.2-0.2 0.4-0.5 0.4-0.4 0.7-0.7c0.2-0.3 0.4-0.4 0.6-0.6 0.2-0.1 0.5-0.4 0.8-0.6q0.2-0.1 0.4-0.2 0.2-0.2 0.4-0.3 0.3-0.1 0.5-0.2 0.2-0.1 0.5-0.3 0.4-0.1 0.8-0.3 0.1-0.1 0.3-0.1 0.2-0.1 0.4-0.1 0.2-0.1 0.3-0.1 0.2-0.1 0.4-0.1 0.3-0.1 0.6-0.1 0.4-0.1 0.7-0.1 0.3-0.1 0.6-0.1 0.3 0 0.7 0h59q0.1 0 0.3 0 0.2 0 0.3 0 0.2 0 0.3 0 0.2 0 0.4 0.1 0.1 0 0.3 0 0.2 0 0.3 0.1 0.2 0 0.3 0 0.2 0.1 0.4 0.1 0.4 0.1 0.8 0.2 0.1 0.1 0.3 0.1 0.1 0.1 0.3 0.1 0.1 0.1 0.3 0.1 0.1 0.1 0.3 0.1 0.1 0.1 0.2 0.2 0.2 0 0.3 0.1 0.2 0.1 0.3 0.2 0.1 0 0.3 0.1 0.3 0.2 0.7 0.4 0.2 0.2 0.4 0.4 0.2 0.1 0.4 0.3 0.3 0.2 0.5 0.4 0.2 0.2 0.4 0.3 0.8 0.8 1.4 1.8 0.6 0.9 1.1 1.9 0.4 1.1 0.6 2.2 0.2 1.1 0.2 2.2z"/><path fill-rule="evenodd" class="a" d="m418.5 334.3q-0.4 0.2-0.8 0.4-0.4 0.2-0.8 0.3-0.4 0.2-0.9 0.3-0.4 0.2-0.8 0.3l-3.9 0.8-10.7 2.2 5.5 3-4.6 1.4-8.3-2.9-18.2 3.7 5.7 3-4.6 1.5-8.5-3-17 3.4 5 2.7-4.5 1.5-7.6-2.7-18.3 3.7 6 3.3-4.6 1.4-9-3.2-17.6 3.6 5.3 2.8-4.5 1.5-8.1-2.9-12.9 2.6q-0.4 0.1-0.8 0.2-0.4 0.1-0.9 0.2-0.4 0.1-0.8 0.1-0.4 0.1-0.8 0.2c-20.1 2.5-39-16.8-42.4-43.1-0.1-1.1-0.2-2.1-0.3-3.1v-0.3h0.2q-0.1-0.4-0.2-0.8c0.1-1 0.1-2 0.1-3q0-1.3-0.1-2.6 0-1.3-0.2-2.6-0.1-1.3-0.3-2.6-0.2-1.3-0.4-2.6c-0.1-18.8 5-34 20.5-36q0.8-0.1 1.7-0.1 0.9-0.1 1.7-0.1 0.9 0 1.8 0.1 0.8 0 1.7 0.1l130.8-3q0.3 0 0.7-0.1 0.4 0 0.8 0 0.4-0.1 0.8-0.1 0.4 0 0.8 0h0.6c-11.9 5.9-9.9 22.7-6.1 40.2 3.8 17.5 16.5 29.9 29.8 30.3zm-17.8-0.1c-8.6-4.7-14.9-16.2-17.8-29.7-3-13.5-5.8-25.8-2.5-33.3l-14.5-0.5q-1.5 5.7-1.8 11.6-0.4 5.8 0.4 11.6 0.8 5.8 2.7 11.4 1.9 5.5 4.8 10.6-1-1.3-1.9-2.7-0.9-1.4-1.8-2.8-0.9-1.4-1.6-2.8-0.8-1.5-1.5-3c-6.5-15.5-4.1-27.5-2-33.9l-8-0.3q-1.3 3.7-1.8 7.5-0.5 3.8-0.3 7.7 0.2 3.8 1.1 7.6 1 3.7 2.6 7.2-0.6-0.9-1.1-1.9-0.5-0.9-1-1.9-0.5-1-0.9-2-0.5-1-0.8-2.1c-3.4-10.1-1.4-17.9 0.3-22.1l-1.8-0.1-91.7-3c-3.3 1.8-7.9 4.5-11 9.4-8.6 13.2-8.8 42 0.5 58.2q0.8 1.2 1.5 2.4 0.8 1.2 1.7 2.3 0.8 1.2 1.7 2.3 0.9 1.1 1.8 2.2l113.4-9.3-106.4 15.9q1.2 1 2.5 2 1.3 0.9 2.6 1.8 1.3 0.8 2.6 1.6 1.3 0.8 2.7 1.6z"/><path class="e" d="m141.8 320.6l-2.3 3.4-2-1.1q-0.2 0.2-0.4 0.3-0.1 0.1-0.3 0.2-0.2 0.2-0.4 0.3-0.2 0.1-0.3 0.2l-0.7 2.8-3.3 0.4-0.3-0.9c3.9-2 7.5-7.3 7.5-12.2 0-5.7-3.5-10.5-7.9-11l0.4-2 3.3-0.4 0.7 2.7q0.2 0 0.4 0.1 0.2 0.1 0.4 0.2 0.2 0 0.3 0.1 0.2 0.1 0.4 0.2l2-1.5 1.7 2.2 0.6 0.8-0.6 1.7-0.3 1q0.1 0.2 0.2 0.4 0 0.2 0.1 0.5 0.1 0.2 0.2 0.4 0 0.3 0.1 0.5l2.1 0.7v4.4l-2.1 1.2q0 0.3-0.1 0.5-0.1 0.3-0.1 0.5-0.1 0.3-0.2 0.5-0.1 0.3-0.2 0.5z"/><path class="e" d="m220.6 316.1l-2.3 1.3q-0.1 0.5-0.2 1-0.2 0.5-0.3 1-0.2 0.5-0.3 1-0.2 0.5-0.4 1l2 5.1-4.6 6.9-4-2.2q-0.4 0.2-0.7 0.5-0.4 0.2-0.7 0.5-0.4 0.2-0.7 0.4-0.4 0.3-0.8 0.5l-1.3 5.7-6.7 0.8-0.5-1.7c7.3-3.7 13.9-13.2 14.9-22.4q0.1-1.2 0.1-2.4c0-11.5-7-22.2-15.4-25l0.4-1.4 6.7-0.7 1.4 5.4q0.4 0.2 0.8 0.3 0.3 0.1 0.7 0.3 0.4 0.1 0.7 0.3 0.4 0.2 0.7 0.4l3.9-3.1 4.8 5.8-1.9 5.6q0.2 0.4 0.4 0.9 0.1 0.4 0.3 0.9 0.2 0.5 0.3 0.9 0.1 0.5 0.2 1l4.3 1.4v9z"/></svg>